<svg width="179" height="79" viewBox="0 0 179 79" fill="none" xmlns="http://www.w3.org/2000/svg">
<path d="M6.01106 30.96C5.01906 30.96 4.07506 30.672 3.17906 30.096C2.28306 29.52 1.61106 28.672 1.16306 27.552C1.00306 27.136 0.891063 26.688 0.827063 26.208C0.795063 25.728 0.779063 25.264 0.779063 24.816V24.192C0.779063 23.968 0.795063 23.76 0.827063 23.568C0.891063 23.376 1.01906 23.28 1.21106 23.28C1.27506 23.28 1.30706 23.312 1.30706 23.376C1.30706 23.568 1.29106 23.76 1.25906 23.952C1.25906 24.144 1.25906 24.336 1.25906 24.528C1.25906 26.032 1.62706 27.168 2.36306 27.936C3.13106 28.704 4.07506 29.088 5.19506 29.088C6.31506 29.088 7.40306 28.768 8.45906 28.128C9.51506 27.488 10.4911 26.672 11.3871 25.68C12.1231 24.88 12.8431 23.84 13.5471 22.56C14.2831 21.28 15.0351 19.904 15.8031 18.432C14.7791 18.464 13.7071 18.512 12.5871 18.576C11.4671 18.608 10.4431 18.704 9.51506 18.864C9.22706 18.896 9.14706 18.816 9.27506 18.624C9.40306 18.432 9.64306 18.192 9.99506 17.904C10.3471 17.616 10.7151 17.36 11.0991 17.136C11.5151 16.912 11.8511 16.784 12.1071 16.752C12.6511 16.784 13.3231 16.816 14.1231 16.848C14.9551 16.848 15.7711 16.864 16.5711 16.896C17.2751 15.616 17.9471 14.32 18.5871 13.008C19.2591 11.664 19.8831 10.416 20.4591 9.264C20.7791 8.624 21.1951 7.984 21.7071 7.344C22.2511 6.672 22.8431 6.08 23.4831 5.568C24.1551 5.056 24.8431 4.736 25.5471 4.608C23.8511 4.672 22.0911 4.72 20.2671 4.752C18.4751 4.784 16.7631 5.024 15.1311 5.472C14.3951 5.664 13.7391 5.92 13.1631 6.24C12.5871 6.56 12.1711 6.96 11.9151 7.44C11.6591 7.92 11.5311 8.448 11.5311 9.024C11.5311 9.824 11.7551 10.4 12.2031 10.752C12.2351 10.784 12.2511 10.816 12.2511 10.848C12.2511 10.912 12.1871 10.976 12.0591 11.04C11.9631 11.104 11.8671 11.12 11.7711 11.088C11.4831 10.928 11.1311 10.544 10.7151 9.936C10.2991 9.296 10.0431 8.768 9.94706 8.352C9.85106 7.968 9.80306 7.616 9.80306 7.296C9.80306 6.464 10.0751 5.824 10.6191 5.376C11.1631 4.896 11.8511 4.56 12.6831 4.368C13.5151 4.144 14.3631 4.016 15.2271 3.984C16.0911 3.92 16.8591 3.888 17.5311 3.888H22.8591C24.0751 3.888 25.1311 3.888 26.0271 3.888C26.9231 3.856 27.6431 3.792 28.1871 3.696C28.2511 3.696 28.2991 3.696 28.3311 3.696C28.3631 3.664 28.3951 3.648 28.4271 3.648C28.6191 3.648 28.7151 3.712 28.7151 3.84C28.7151 3.968 28.6511 4.096 28.5231 4.224C28.4271 4.32 28.3471 4.368 28.2831 4.368C27.2911 4.464 26.3631 4.896 25.4991 5.664C24.6351 6.432 23.8511 7.424 23.1471 8.64C22.9551 8.992 22.6031 9.648 22.0911 10.608C21.5791 11.568 21.0191 12.624 20.4111 13.776C19.8031 14.928 19.2431 16 18.7311 16.992C19.3391 17.024 19.8351 17.056 20.2191 17.088C20.6351 17.088 20.8751 17.088 20.9391 17.088H27.9951C28.2831 17.088 28.8111 17.04 29.5791 16.944C30.3791 16.848 30.9871 16.704 31.4031 16.512C32.2671 14.848 33.1471 13.2 34.0431 11.568C34.9391 9.936 35.7711 8.48 36.5391 7.2C37.3391 5.888 37.9631 4.944 38.4111 4.368C38.9551 4.144 39.5631 3.872 40.2351 3.552C40.9391 3.232 41.6271 2.944 42.2991 2.688C43.0031 2.432 43.6271 2.304 44.1711 2.304C44.3311 2.304 44.4911 2.352 44.6511 2.448C44.8431 2.544 44.9391 2.64 44.9391 2.736C44.9391 2.896 44.6191 2.976 43.9791 2.976C43.6591 2.976 43.3231 3.04 42.9711 3.168C42.6191 3.264 42.1711 3.6 41.6271 4.176C41.1791 4.624 40.5871 5.392 39.8511 6.48C39.1471 7.536 38.3791 8.784 37.5471 10.224C36.7151 11.632 35.8671 13.12 35.0031 14.688C34.1711 16.256 33.3871 17.792 32.6511 19.296C31.9151 20.768 31.2911 22.112 30.7791 23.328C30.2671 24.512 29.9311 25.424 29.7711 26.064C29.7391 26.288 29.6911 26.544 29.6271 26.832C29.5951 27.088 29.5791 27.344 29.5791 27.6C29.5791 28.112 29.7071 28.56 29.9631 28.944C30.2191 29.328 30.6991 29.52 31.4031 29.52C31.9151 29.52 32.4271 29.424 32.9391 29.232C33.4831 29.04 33.9631 28.832 34.3791 28.608C35.5311 27.968 36.5711 27.104 37.4991 26.016C38.4271 24.896 39.1791 23.952 39.7551 23.184C39.8511 23.056 39.9151 22.992 39.9471 22.992C40.0431 22.992 40.0911 23.104 40.0911 23.328C40.0911 23.52 40.0431 23.696 39.9471 23.856C39.3391 24.72 38.5391 25.728 37.5471 26.88C36.5551 28 35.4031 28.928 34.0911 29.664C33.0671 30.208 31.8991 30.48 30.5871 30.48C29.5951 30.48 28.7311 30.128 27.9951 29.424C27.2911 28.688 26.9391 27.808 26.9391 26.784C26.9391 26.272 27.0351 25.76 27.2271 25.248C27.5151 24.512 27.9791 23.456 28.6191 22.08C29.2911 20.704 30.0431 19.184 30.8751 17.52C30.5551 17.808 30.1871 18.064 29.7711 18.288C29.3551 18.512 28.9551 18.608 28.5711 18.576C27.5791 18.48 26.4431 18.432 25.1631 18.432C23.9151 18.4 22.2991 18.384 20.3151 18.384H18.0111C17.1151 20.208 16.1871 22 15.2271 23.76C14.2671 25.488 13.2751 26.912 12.2511 28.032C11.4511 28.896 10.4911 29.6 9.37106 30.144C8.25106 30.688 7.13106 30.96 6.01106 30.96ZM45.6366 30.144C45.3166 30.144 45.0446 30.08 44.8206 29.952C44.5966 29.824 44.4846 29.584 44.4846 29.232C44.4846 28.784 44.5966 28.272 44.8206 27.696C45.0446 27.12 45.3006 26.56 45.5886 26.016C45.8766 25.44 46.1326 24.976 46.3566 24.624C45.2366 25.808 44.0686 26.928 42.8526 27.984C42.2446 28.496 41.5726 28.976 40.8366 29.424C40.1006 29.872 39.3166 30.096 38.4846 30.096C38.1646 30.096 37.9406 30 37.8126 29.808C37.6846 29.584 37.6206 29.328 37.6206 29.04C37.6206 28.88 37.6366 28.768 37.6686 28.704C37.8286 27.456 38.2286 26.16 38.8686 24.816C39.5086 23.472 40.2926 22.208 41.2206 21.024C42.1486 19.84 43.0926 18.88 44.0526 18.144C45.1406 17.312 46.3406 16.896 47.6526 16.896H53.1726C53.3326 16.896 53.4126 16.96 53.4126 17.088C53.4126 17.344 53.2686 17.472 52.9806 17.472C52.6606 17.472 52.3406 17.68 52.0206 18.096C51.7006 18.48 51.4606 18.8 51.3006 19.056C51.0766 19.408 50.7246 20 50.2446 20.832C49.7646 21.664 49.2686 22.576 48.7566 23.568C48.2766 24.528 47.8606 25.424 47.5086 26.256C47.1566 27.088 46.9806 27.696 46.9806 28.08C46.9806 28.528 47.2046 28.752 47.6526 28.752C48.1326 28.752 48.6766 28.528 49.2846 28.08C49.8926 27.632 50.5006 27.088 51.1086 26.448C51.7486 25.776 52.3246 25.12 52.8366 24.48C53.3806 23.808 53.8126 23.28 54.1326 22.896C54.3246 23.088 54.3086 23.36 54.0846 23.712C53.8926 24.032 53.7166 24.288 53.5566 24.48C52.9166 25.312 52.1806 26.176 51.3486 27.072C50.5166 27.936 49.6046 28.672 48.6126 29.28C47.6526 29.856 46.6606 30.144 45.6366 30.144ZM40.4526 28.464C40.8366 28.464 41.3646 28.192 42.0366 27.648C42.7406 27.072 43.4926 26.368 44.2926 25.536C45.0926 24.672 45.8446 23.776 46.5486 22.848C47.2526 21.888 47.8286 21.024 48.2766 20.256C48.7566 19.456 48.9966 18.848 48.9966 18.432C48.9966 18.08 48.8846 17.84 48.6606 17.712C48.4686 17.584 48.2126 17.52 47.8926 17.52C47.3806 17.52 46.8206 17.712 46.2126 18.096C45.6366 18.448 45.1726 18.8 44.8206 19.152C44.4366 19.504 43.9726 20.064 43.4286 20.832C42.9166 21.568 42.4046 22.384 41.8926 23.28C41.3806 24.176 40.9486 25.04 40.5966 25.872C40.2446 26.704 40.0686 27.376 40.0686 27.888C40.0686 28.272 40.1966 28.464 40.4526 28.464ZM53.5059 30.72C53.3779 30.72 53.3779 30.576 53.5059 30.288C53.6659 30 53.8099 29.68 53.9379 29.328C54.0979 28.976 54.2579 28.592 54.4179 28.176C54.7379 27.408 55.0899 26.544 55.4739 25.584C55.8579 24.624 56.2259 23.696 56.5779 22.8C56.9299 21.872 57.2339 21.088 57.4899 20.448C57.7779 19.776 57.9699 19.344 58.0659 19.152C57.6179 19.632 57.0739 20.24 56.4339 20.976C55.8259 21.68 55.2499 22.368 54.7059 23.04C54.1619 23.712 53.7459 24.24 53.4579 24.624C53.3619 24.752 53.2819 24.816 53.2179 24.816C53.1539 24.816 53.1219 24.736 53.1219 24.576C53.1219 24.32 53.2019 24.08 53.3619 23.856C53.9699 23.088 54.6419 22.224 55.3779 21.264C56.1459 20.304 56.8339 19.424 57.4419 18.624C58.0499 17.792 58.4339 17.248 58.5939 16.992C58.9459 16.928 59.4579 16.832 60.1299 16.704C60.8339 16.576 61.3139 16.4 61.5699 16.176C61.6659 16.08 61.7619 16.032 61.8579 16.032C61.9219 16.032 61.9539 16.096 61.9539 16.224C61.9859 16.32 61.9539 16.432 61.8579 16.56C61.6659 16.784 61.3299 17.312 60.8499 18.144C60.4019 18.944 59.9059 19.84 59.3619 20.832C58.8499 21.824 58.3699 22.72 57.9219 23.52C58.3059 23.008 58.7219 22.512 59.1699 22.032C59.6179 21.552 60.0499 21.088 60.4659 20.64C60.8499 20.256 61.3779 19.776 62.0499 19.2C62.7219 18.624 63.4259 18.096 64.1619 17.616C64.8979 17.136 65.5379 16.864 66.0819 16.8C66.2099 16.768 66.3219 16.752 66.4179 16.752C66.5459 16.752 66.6419 16.752 66.7059 16.752C67.4099 16.752 67.7619 17.008 67.7619 17.52C67.7619 17.904 67.5539 18.416 67.1379 19.056C66.9139 19.408 66.5619 20 66.0819 20.832C65.6339 21.632 65.1699 22.512 64.6899 23.472C64.2419 24.4 63.8419 25.28 63.4899 26.112C63.1699 26.912 63.0099 27.504 63.0099 27.888C63.0099 28.336 63.2339 28.56 63.6819 28.56C64.2259 28.56 64.8179 28.288 65.4579 27.744C66.1299 27.2 66.8499 26.512 67.6179 25.68C68.3859 24.816 69.1539 23.904 69.9219 22.944C69.9859 23.008 70.0179 23.12 70.0179 23.28C70.0179 23.504 69.9379 23.728 69.7779 23.952C69.6499 24.144 69.5219 24.32 69.3939 24.48C69.0739 24.896 68.6419 25.424 68.0979 26.064C67.5859 26.672 67.0579 27.28 66.5139 27.888C65.9699 28.464 65.4739 28.928 65.0259 29.28C64.7059 29.504 64.2899 29.744 63.7779 30C63.2659 30.256 62.7539 30.384 62.2419 30.384C61.6659 30.384 61.2659 30.24 61.0419 29.952C60.8179 29.632 60.7059 29.248 60.7059 28.8C60.7059 28.288 60.8019 27.744 60.9939 27.168C61.1859 26.592 61.3939 26.048 61.6179 25.536C61.8739 24.992 62.0659 24.592 62.1939 24.336C62.7699 23.216 63.2979 22.16 63.7779 21.168C64.2579 20.176 64.5939 19.472 64.7859 19.056C64.8819 18.864 64.9299 18.704 64.9299 18.576C64.9299 18.352 64.7539 18.336 64.4019 18.528C64.0499 18.72 63.6179 19.008 63.1059 19.392C62.6259 19.776 62.1779 20.16 61.7619 20.544C61.3459 20.896 61.0739 21.136 60.9459 21.264C59.7619 22.512 58.7219 23.904 57.8259 25.44C56.9619 26.944 56.2259 28.496 55.6179 30.096C55.2019 30.128 54.7859 30.24 54.3699 30.432C53.9539 30.624 53.6659 30.72 53.5059 30.72ZM75.5897 30.144C75.2697 30.144 74.9977 30.08 74.7737 29.952C74.5497 29.824 74.4377 29.584 74.4377 29.232C74.4377 28.784 74.5497 28.272 74.7737 27.696C74.9977 27.12 75.2537 26.56 75.5417 26.016C75.8297 25.44 76.0857 24.976 76.3097 24.624C75.1897 25.808 74.0217 26.928 72.8057 27.984C72.1977 28.496 71.5257 28.976 70.7897 29.424C70.0537 29.872 69.2697 30.096 68.4377 30.096C68.1177 30.096 67.8937 30 67.7657 29.808C67.6377 29.584 67.5737 29.328 67.5737 29.04C67.5737 28.88 67.5897 28.768 67.6217 28.704C67.7817 27.456 68.1817 26.16 68.8217 24.816C69.4617 23.472 70.2457 22.208 71.1737 21.024C72.1017 19.84 73.0457 18.88 74.0057 18.144C74.7417 17.6 75.4457 17.264 76.1177 17.136C76.7897 16.976 77.5257 16.896 78.3257 16.896H79.9097C80.4217 16.032 80.9497 15.072 81.4937 14.016C82.0697 12.928 82.6297 11.856 83.1737 10.8C83.7497 9.744 84.2777 8.816 84.7577 8.016C86.0697 5.776 87.5097 3.984 89.0777 2.64C90.6777 1.296 92.4537 0.623998 94.4057 0.623998C94.8217 0.623998 95.2057 0.751998 95.5577 1.008C95.9097 1.232 96.0697 1.584 96.0377 2.064L95.9417 3.792C95.9417 3.824 95.9097 3.872 95.8457 3.936C95.7817 3.968 95.7337 3.984 95.7017 3.984C95.6697 3.984 95.6217 3.952 95.5577 3.888C95.4617 3.312 95.1737 2.88 94.6937 2.592C94.2137 2.272 93.6217 2.112 92.9177 2.112C92.6937 2.112 92.4377 2.128 92.1497 2.16C91.8937 2.192 91.6377 2.256 91.3817 2.352C90.4857 2.672 89.6377 3.328 88.8377 4.32C88.0377 5.28 87.1737 6.56 86.2457 8.16C85.9257 8.768 85.5097 9.568 84.9977 10.56C84.4857 11.52 83.9417 12.56 83.3657 13.68C82.8217 14.8 82.2937 15.888 81.7817 16.944C81.3017 18 80.8857 18.896 80.5337 19.632C80.3737 20.016 80.1017 20.608 79.7177 21.408C79.3337 22.176 78.9177 23.024 78.4697 23.952C78.0537 24.848 77.6857 25.68 77.3657 26.448C77.0777 27.216 76.9337 27.76 76.9337 28.08C76.9337 28.528 77.1257 28.752 77.5097 28.752C77.8937 28.752 78.4057 28.528 79.0457 28.08C79.6857 27.6 80.3417 27.024 81.0137 26.352C81.7177 25.648 82.3417 24.976 82.8857 24.336C83.4617 23.696 83.8617 23.216 84.0857 22.896C84.1817 22.992 84.2297 23.104 84.2297 23.232C84.2297 23.456 84.1337 23.68 83.9417 23.904C83.7817 24.128 83.6377 24.32 83.5097 24.48C82.9337 25.248 82.2137 26.08 81.3497 26.976C80.5177 27.84 79.6057 28.592 78.6137 29.232C77.6217 29.84 76.6137 30.144 75.5897 30.144ZM70.4057 28.464C70.7897 28.464 71.3177 28.192 71.9897 27.648C72.6937 27.072 73.4457 26.368 74.2457 25.536C75.0457 24.672 75.7977 23.776 76.5017 22.848C77.2057 21.888 77.7817 21.024 78.2297 20.256C78.7097 19.456 78.9497 18.848 78.9497 18.432C78.9497 18.08 78.8377 17.84 78.6137 17.712C78.4217 17.584 78.1657 17.52 77.8457 17.52C77.3337 17.52 76.7737 17.712 76.1657 18.096C75.5897 18.448 75.1257 18.8 74.7737 19.152C74.3897 19.504 73.9257 20.064 73.3817 20.832C72.8697 21.568 72.3577 22.384 71.8457 23.28C71.3337 24.176 70.9017 25.04 70.5497 25.872C70.1977 26.704 70.0217 27.376 70.0217 27.888C70.0217 28.272 70.1497 28.464 70.4057 28.464ZM85.1871 30.384C84.0031 30.384 83.1711 30.16 82.6911 29.712C82.2111 29.264 81.9711 28.688 81.9711 27.984C81.9711 27.056 82.2751 26.032 82.8831 24.912C83.4911 23.76 84.0671 22.8 84.6111 22.032C85.1551 21.296 85.7631 20.608 86.4351 19.968C87.1391 19.296 87.8911 18.72 88.6911 18.24C89.2031 17.92 89.8911 17.584 90.7551 17.232C91.6511 16.848 92.4031 16.656 93.0111 16.656C93.7471 16.656 94.2591 16.832 94.5471 17.184C94.8351 17.504 94.9791 17.904 94.9791 18.384C94.9791 18.768 94.9151 19.168 94.7871 19.584C94.6591 19.968 94.5151 20.336 94.3551 20.688C94.2591 20.88 94.1151 21.024 93.9231 21.12C93.7311 21.184 93.6351 21.152 93.6351 21.024C93.6351 20.864 93.6511 20.72 93.6831 20.592C93.7151 20.464 93.7311 20.32 93.7311 20.16C93.7311 19.552 93.5871 18.96 93.2991 18.384C93.0431 17.776 92.6431 17.472 92.0991 17.472C91.5231 17.472 90.8991 17.68 90.2271 18.096C89.5551 18.48 89.0911 18.816 88.8351 19.104C88.0031 19.968 87.1871 21.04 86.3871 22.32C85.6191 23.6 85.0591 24.816 84.7071 25.968C84.4831 26.64 84.3711 27.216 84.3711 27.696C84.3711 28.24 84.5151 28.624 84.8031 28.848C85.0911 29.072 85.4431 29.184 85.8591 29.184C86.1791 29.184 86.5151 29.136 86.8671 29.04C87.2511 28.944 87.6511 28.832 88.0671 28.704C89.0271 28.384 89.9871 27.888 90.9471 27.216C91.9391 26.512 92.8351 25.776 93.6351 25.008C94.4351 24.208 95.0431 23.52 95.4591 22.944C95.5231 23.008 95.5551 23.104 95.5551 23.232C95.5551 23.392 95.4911 23.584 95.3631 23.808C95.2351 24 95.1391 24.16 95.0751 24.288C94.4031 25.184 93.5231 26.112 92.4351 27.072C91.3471 28 90.1631 28.784 88.8831 29.424C87.6351 30.064 86.4031 30.384 85.1871 30.384ZM94.8966 30.672C94.7686 30.672 94.7686 30.544 94.8966 30.288C95.0566 30 95.2006 29.68 95.3286 29.328C95.4886 28.976 95.6486 28.592 95.8086 28.176C96.1286 27.408 96.4806 26.544 96.8646 25.584C97.2486 24.624 97.6166 23.696 97.9686 22.8C98.3206 21.872 98.6246 21.088 98.8806 20.448C99.1686 19.776 99.3606 19.344 99.4566 19.152C99.0086 19.632 98.4646 20.24 97.8246 20.976C97.2166 21.68 96.6406 22.368 96.0966 23.04C95.5526 23.712 95.1366 24.24 94.8486 24.624C94.7526 24.752 94.6726 24.816 94.6086 24.816C94.5446 24.816 94.5126 24.736 94.5126 24.576C94.5126 24.32 94.5926 24.08 94.7526 23.856C95.3606 23.088 96.0326 22.224 96.7686 21.264C97.5366 20.304 98.2246 19.424 98.8326 18.624C99.4406 17.792 99.8246 17.248 99.9846 16.992C100.337 16.928 100.849 16.832 101.521 16.704C102.225 16.576 102.705 16.4 102.961 16.176C103.057 16.08 103.153 16.032 103.249 16.032C103.313 16.032 103.345 16.096 103.345 16.224C103.377 16.32 103.345 16.432 103.249 16.56C103.057 16.752 102.769 17.168 102.385 17.808C102.033 18.448 101.633 19.184 101.185 20.016C100.737 20.848 100.305 21.648 99.8886 22.416C100.209 21.936 100.625 21.376 101.137 20.736C101.681 20.064 102.273 19.424 102.913 18.816C103.553 18.176 104.193 17.648 104.833 17.232C105.505 16.816 106.129 16.608 106.705 16.608C107.121 16.608 107.473 16.704 107.761 16.896C108.049 17.056 108.273 17.36 108.433 17.808C108.529 18.032 108.577 18.288 108.577 18.576C108.577 19.12 108.433 19.648 108.145 20.16C107.889 20.64 107.697 21.008 107.569 21.264C107.537 21.36 107.425 21.456 107.233 21.552C107.041 21.616 106.961 21.584 106.993 21.456C107.025 21.296 107.041 21.136 107.041 20.976C107.073 20.816 107.089 20.64 107.089 20.448C107.089 19.904 106.977 19.408 106.753 18.96C106.561 18.512 106.193 18.288 105.649 18.288C105.137 18.288 104.513 18.608 103.777 19.248C103.041 19.888 102.305 20.624 101.569 21.456C100.641 22.544 99.9046 23.584 99.3606 24.576C98.8166 25.536 98.3686 26.48 98.0166 27.408C97.8246 27.92 97.6326 28.432 97.4406 28.944C97.2486 29.424 97.1046 29.808 97.0086 30.096C96.5926 30.128 96.1766 30.224 95.7606 30.384C95.3446 30.576 95.0566 30.672 94.8966 30.672ZM114.215 30.144C113.895 30.144 113.623 30.08 113.399 29.952C113.175 29.824 113.063 29.584 113.063 29.232C113.063 28.784 113.175 28.272 113.399 27.696C113.623 27.12 113.879 26.56 114.167 26.016C114.455 25.44 114.711 24.976 114.935 24.624C113.815 25.808 112.647 26.928 111.431 27.984C110.823 28.496 110.151 28.976 109.415 29.424C108.679 29.872 107.895 30.096 107.063 30.096C106.743 30.096 106.519 30 106.391 29.808C106.263 29.584 106.199 29.328 106.199 29.04C106.199 28.88 106.215 28.768 106.247 28.704C106.407 27.456 106.807 26.16 107.447 24.816C108.087 23.472 108.871 22.208 109.799 21.024C110.727 19.84 111.671 18.88 112.631 18.144C113.719 17.312 114.919 16.896 116.231 16.896H121.751C121.911 16.896 121.991 16.96 121.991 17.088C121.991 17.344 121.847 17.472 121.559 17.472C121.239 17.472 120.919 17.68 120.599 18.096C120.279 18.48 120.039 18.8 119.879 19.056C119.655 19.408 119.303 20 118.823 20.832C118.343 21.664 117.847 22.576 117.335 23.568C116.855 24.528 116.439 25.424 116.087 26.256C115.735 27.088 115.559 27.696 115.559 28.08C115.559 28.528 115.783 28.752 116.231 28.752C116.711 28.752 117.255 28.528 117.863 28.08C118.471 27.632 119.079 27.088 119.687 26.448C120.327 25.776 120.903 25.12 121.415 24.48C121.959 23.808 122.391 23.28 122.711 22.896C122.903 23.088 122.887 23.36 122.663 23.712C122.471 24.032 122.295 24.288 122.135 24.48C121.495 25.312 120.759 26.176 119.927 27.072C119.095 27.936 118.183 28.672 117.191 29.28C116.231 29.856 115.239 30.144 114.215 30.144ZM109.031 28.464C109.415 28.464 109.943 28.192 110.615 27.648C111.319 27.072 112.071 26.368 112.871 25.536C113.671 24.672 114.423 23.776 115.127 22.848C115.831 21.888 116.407 21.024 116.855 20.256C117.335 19.456 117.575 18.848 117.575 18.432C117.575 18.08 117.463 17.84 117.239 17.712C117.047 17.584 116.791 17.52 116.471 17.52C115.959 17.52 115.399 17.712 114.791 18.096C114.215 18.448 113.751 18.8 113.399 19.152C113.015 19.504 112.551 20.064 112.007 20.832C111.495 21.568 110.983 22.384 110.471 23.28C109.959 24.176 109.527 25.04 109.175 25.872C108.823 26.704 108.647 27.376 108.647 27.888C108.647 28.272 108.775 28.464 109.031 28.464ZM110.66 40.848C109.412 40.848 108.372 40.64 107.54 40.224C106.676 39.84 106.1 39.248 105.812 38.448C105.78 38.352 105.764 38.256 105.764 38.16C105.732 38.064 105.716 37.952 105.716 37.824C105.716 37.344 105.828 36.8 106.052 36.192C106.276 35.616 106.516 34.992 106.772 34.32C106.868 34.128 106.98 34.032 107.108 34.032C107.332 34.032 107.396 34.192 107.3 34.512C107.076 34.992 106.964 35.504 106.964 36.048C106.964 37.168 107.46 38.064 108.452 38.736C109.412 39.44 110.516 39.792 111.764 39.792C112.724 39.792 113.652 39.568 114.548 39.12C116.052 38.352 117.284 37.296 118.244 35.952C119.204 34.608 120.052 33.248 120.788 31.872C121.908 29.728 122.868 27.488 123.668 25.152C124.5 22.784 125.38 20.448 126.308 18.144H125.204C125.044 18.144 124.868 18.16 124.676 18.192C124.484 18.224 124.308 18.256 124.148 18.288L124.052 18.24C124.116 17.888 124.42 17.584 124.964 17.328C125.54 17.04 125.988 16.896 126.308 16.896H126.884C127.364 15.744 127.924 14.48 128.564 13.104C129.236 11.728 129.956 10.352 130.724 8.976C131.492 7.568 132.324 6.288 133.22 5.136C134.148 3.984 135.108 3.072 136.1 2.4C137.732 1.248 139.54 0.672 141.524 0.672C141.908 0.672 142.276 0.799999 142.628 1.056C143.012 1.28 143.188 1.632 143.156 2.112L143.012 3.84C143.012 3.904 142.964 3.952 142.868 3.984C142.772 4.016 142.708 4 142.676 3.936C142.548 3.296 142.196 2.832 141.62 2.544C141.076 2.224 140.436 2.064 139.7 2.064C138.516 2.064 137.428 2.448 136.436 3.216C135.476 3.984 134.436 5.408 133.316 7.488C132.9 8.288 132.436 9.232 131.924 10.32C131.444 11.408 130.964 12.528 130.484 13.68C130.004 14.832 129.54 15.904 129.092 16.896H132.548C132.772 16.896 132.996 16.896 133.22 16.896C133.476 16.864 133.716 16.832 133.94 16.8C133.94 16.928 133.844 17.056 133.652 17.184C133.492 17.28 133.348 17.36 133.22 17.424C132.42 17.84 131.668 18.08 130.964 18.144C130.26 18.176 129.46 18.176 128.564 18.144C127.86 19.904 127.188 21.584 126.548 23.184C125.94 24.752 125.268 26.288 124.532 27.792C123.924 29.136 123.172 30.56 122.276 32.064C121.38 33.568 120.356 34.992 119.204 36.336C118.052 37.68 116.772 38.768 115.364 39.6C113.924 40.432 112.356 40.848 110.66 40.848ZM132.435 30.144C132.115 30.144 131.843 30.08 131.619 29.952C131.395 29.824 131.283 29.584 131.283 29.232C131.283 28.784 131.395 28.256 131.619 27.648C131.875 27.04 132.147 26.432 132.435 25.824C132.723 25.216 132.963 24.72 133.155 24.336C133.315 24.048 133.523 23.6 133.779 22.992C134.067 22.352 134.355 21.696 134.643 21.024C134.963 20.32 135.219 19.728 135.411 19.248C135.635 18.768 135.747 18.528 135.747 18.528C135.459 18.848 135.075 19.296 134.595 19.872C134.147 20.448 133.651 21.056 133.107 21.696C132.595 22.304 132.115 22.88 131.667 23.424C131.251 23.968 130.947 24.368 130.755 24.624C130.659 24.752 130.579 24.816 130.515 24.816C130.451 24.816 130.419 24.736 130.419 24.576C130.419 24.32 130.499 24.08 130.659 23.856C131.043 23.376 131.507 22.8 132.051 22.128C132.595 21.424 133.139 20.72 133.683 20.016C134.259 19.312 134.755 18.688 135.171 18.144C134.915 18.144 134.579 18.16 134.163 18.192C133.779 18.224 133.427 18.272 133.107 18.336C132.787 18.368 132.611 18.384 132.579 18.384C132.419 18.384 132.435 18.256 132.627 18C132.819 17.744 133.075 17.488 133.395 17.232C133.715 16.976 133.955 16.848 134.115 16.848C134.147 16.848 134.403 16.864 134.883 16.896C135.363 16.896 135.715 16.896 135.939 16.896C136.579 16.032 137.203 15.04 137.811 13.92C138.451 12.8 139.075 11.568 139.683 10.224C139.939 10.192 140.371 10.016 140.979 9.696C141.619 9.344 142.115 8.992 142.467 8.64C142.627 8.48 142.755 8.4 142.851 8.4C143.043 8.4 143.043 8.528 142.851 8.784C142.627 9.04 142.243 9.584 141.699 10.416C141.155 11.216 140.547 12.192 139.875 13.344C139.203 14.464 138.563 15.648 137.955 16.896H141.843C142.195 16.896 142.371 16.944 142.371 17.04C142.371 17.168 142.131 17.296 141.651 17.424C141.107 17.584 140.531 17.68 139.923 17.712C139.347 17.744 138.803 17.808 138.291 17.904C137.811 18 137.459 18.208 137.235 18.528C137.043 18.752 136.771 19.232 136.419 19.968C136.067 20.704 135.683 21.552 135.267 22.512C134.883 23.44 134.547 24.384 134.259 25.344C133.971 26.272 133.795 27.056 133.731 27.696V27.888C133.731 28.144 133.811 28.352 133.971 28.512C134.131 28.672 134.291 28.752 134.451 28.752C134.867 28.752 135.395 28.496 136.035 27.984C136.707 27.472 137.395 26.864 138.099 26.16C138.803 25.424 139.411 24.752 139.923 24.144C140.147 23.888 140.339 23.648 140.499 23.424C140.691 23.2 140.803 23.056 140.835 22.992C140.899 23.12 140.931 23.216 140.931 23.28C140.931 23.472 140.867 23.68 140.739 23.904C140.643 24.128 140.531 24.32 140.403 24.48C139.795 25.28 139.059 26.128 138.195 27.024C137.331 27.888 136.403 28.624 135.411 29.232C134.451 29.84 133.459 30.144 132.435 30.144ZM142.766 30.384C141.454 30.384 140.542 30.128 140.03 29.616C139.518 29.104 139.262 28.48 139.262 27.744C139.262 26.816 139.502 25.824 139.982 24.768C140.494 23.712 140.974 22.816 141.422 22.08C141.934 21.312 142.622 20.512 143.486 19.68C144.35 18.848 145.294 18.144 146.318 17.568C147.342 16.992 148.334 16.704 149.294 16.704C150.126 16.704 150.702 16.912 151.022 17.328C151.342 17.712 151.502 18.176 151.502 18.72C151.502 19.712 151.198 20.528 150.59 21.168C150.014 21.808 149.294 22.336 148.43 22.752C147.566 23.136 146.734 23.456 145.934 23.712C145.454 23.84 144.894 23.968 144.254 24.096C143.614 24.224 143.006 24.288 142.43 24.288C142.206 24.864 142.03 25.424 141.902 25.968C141.774 26.512 141.71 27.008 141.71 27.456C141.71 28 141.838 28.448 142.094 28.8C142.382 29.152 142.846 29.328 143.486 29.328C143.742 29.328 144.046 29.296 144.398 29.232C144.75 29.168 145.134 29.072 145.55 28.944C146.51 28.624 147.454 28.112 148.382 27.408C149.31 26.704 150.158 25.952 150.926 25.152C151.726 24.32 152.334 23.632 152.75 23.088C152.846 23.184 152.894 23.296 152.894 23.424C152.894 23.584 152.782 23.84 152.558 24.192C151.918 25.088 151.086 26.016 150.062 26.976C149.038 27.936 147.902 28.752 146.654 29.424C145.406 30.064 144.11 30.384 142.766 30.384ZM142.814 23.328C143.23 23.36 143.694 23.36 144.206 23.328C144.75 23.264 145.278 23.152 145.79 22.992C147.102 22.608 148.046 22 148.622 21.168C149.23 20.304 149.534 19.536 149.534 18.864C149.534 18.48 149.454 18.16 149.294 17.904C149.134 17.648 148.878 17.52 148.526 17.52C147.598 17.52 146.766 17.872 146.03 18.576C145.294 19.248 144.654 20.032 144.11 20.928C143.566 21.824 143.134 22.624 142.814 23.328ZM158.512 30.144C158.192 30.144 157.92 30.08 157.696 29.952C157.472 29.824 157.36 29.584 157.36 29.232C157.36 28.784 157.472 28.272 157.696 27.696C157.92 27.12 158.176 26.56 158.464 26.016C158.752 25.44 159.008 24.976 159.232 24.624C158.112 25.808 156.944 26.928 155.728 27.984C155.12 28.496 154.448 28.976 153.712 29.424C152.976 29.872 152.192 30.096 151.36 30.096C151.04 30.096 150.816 30 150.688 29.808C150.56 29.584 150.496 29.328 150.496 29.04C150.496 28.88 150.512 28.768 150.544 28.704C150.704 27.456 151.104 26.16 151.744 24.816C152.384 23.472 153.168 22.208 154.096 21.024C155.024 19.84 155.968 18.88 156.928 18.144C157.664 17.6 158.368 17.264 159.04 17.136C159.712 16.976 160.448 16.896 161.248 16.896H162.832C163.344 16.032 163.872 15.072 164.416 14.016C164.992 12.928 165.552 11.856 166.096 10.8C166.672 9.744 167.2 8.816 167.68 8.016C168.992 5.776 170.432 3.984 172 2.64C173.6 1.296 175.376 0.623998 177.328 0.623998C177.744 0.623998 178.128 0.751998 178.48 1.008C178.832 1.232 178.992 1.584 178.96 2.064L178.864 3.792C178.864 3.824 178.832 3.872 178.768 3.936C178.704 3.968 178.656 3.984 178.624 3.984C178.592 3.984 178.544 3.952 178.48 3.888C178.384 3.312 178.096 2.88 177.616 2.592C177.136 2.272 176.544 2.112 175.84 2.112C175.616 2.112 175.36 2.128 175.072 2.16C174.816 2.192 174.56 2.256 174.304 2.352C173.408 2.672 172.56 3.328 171.76 4.32C170.96 5.28 170.096 6.56 169.168 8.16C168.848 8.768 168.432 9.568 167.92 10.56C167.408 11.52 166.864 12.56 166.288 13.68C165.744 14.8 165.216 15.888 164.704 16.944C164.224 18 163.808 18.896 163.456 19.632C163.296 20.016 163.024 20.608 162.64 21.408C162.256 22.176 161.84 23.024 161.392 23.952C160.976 24.848 160.608 25.68 160.288 26.448C160 27.216 159.856 27.76 159.856 28.08C159.856 28.528 160.048 28.752 160.432 28.752C160.816 28.752 161.328 28.528 161.968 28.08C162.608 27.6 163.264 27.024 163.936 26.352C164.64 25.648 165.264 24.976 165.808 24.336C166.384 23.696 166.784 23.216 167.008 22.896C167.104 22.992 167.152 23.104 167.152 23.232C167.152 23.456 167.056 23.68 166.864 23.904C166.704 24.128 166.56 24.32 166.432 24.48C165.856 25.248 165.136 26.08 164.272 26.976C163.44 27.84 162.528 28.592 161.536 29.232C160.544 29.84 159.536 30.144 158.512 30.144ZM153.328 28.464C153.712 28.464 154.24 28.192 154.912 27.648C155.616 27.072 156.368 26.368 157.168 25.536C157.968 24.672 158.72 23.776 159.424 22.848C160.128 21.888 160.704 21.024 161.152 20.256C161.632 19.456 161.872 18.848 161.872 18.432C161.872 18.08 161.76 17.84 161.536 17.712C161.344 17.584 161.088 17.52 160.768 17.52C160.256 17.52 159.696 17.712 159.088 18.096C158.512 18.448 158.048 18.8 157.696 19.152C157.312 19.504 156.848 20.064 156.304 20.832C155.792 21.568 155.28 22.384 154.768 23.28C154.256 24.176 153.824 25.04 153.472 25.872C153.12 26.704 152.944 27.376 152.944 27.888C152.944 28.272 153.072 28.464 153.328 28.464ZM41.4954 78.96C40.5034 78.96 39.5594 78.672 38.6634 78.096C37.7674 77.52 37.0954 76.672 36.6474 75.552C36.4874 75.136 36.3754 74.688 36.3114 74.208C36.2794 73.728 36.2634 73.264 36.2634 72.816V72.192C36.2634 71.968 36.2794 71.76 36.3114 71.568C36.3754 71.376 36.5034 71.28 36.6954 71.28C36.7594 71.28 36.7914 71.312 36.7914 71.376C36.7914 71.568 36.7754 71.76 36.7434 71.952C36.7434 72.144 36.7434 72.336 36.7434 72.528C36.7434 74.032 37.1114 75.168 37.8474 75.936C38.6154 76.704 39.5594 77.088 40.6794 77.088C41.7994 77.088 42.8874 76.768 43.9434 76.128C44.9994 75.488 45.9754 74.672 46.8714 73.68C47.6074 72.88 48.3274 71.84 49.0314 70.56C49.7674 69.28 50.5194 67.904 51.2874 66.432C50.2634 66.464 49.1914 66.512 48.0714 66.576C46.9514 66.608 45.9274 66.704 44.9994 66.864C44.7114 66.896 44.6314 66.816 44.7594 66.624C44.8874 66.432 45.1274 66.192 45.4794 65.904C45.8314 65.616 46.1994 65.36 46.5834 65.136C46.9994 64.912 47.3354 64.784 47.5914 64.752C48.1354 64.784 48.8074 64.816 49.6074 64.848C50.4394 64.848 51.2554 64.864 52.0554 64.896C52.7594 63.616 53.4314 62.32 54.0714 61.008C54.7434 59.664 55.3674 58.416 55.9434 57.264C56.2634 56.624 56.6794 55.984 57.1914 55.344C57.7354 54.672 58.3274 54.08 58.9674 53.568C59.6394 53.056 60.3274 52.736 61.0314 52.608C59.3354 52.672 57.5754 52.72 55.7514 52.752C53.9594 52.784 52.2474 53.024 50.6154 53.472C49.8794 53.664 49.2234 53.92 48.6474 54.24C48.0714 54.56 47.6554 54.96 47.3994 55.44C47.1434 55.92 47.0154 56.448 47.0154 57.024C47.0154 57.824 47.2394 58.4 47.6874 58.752C47.7194 58.784 47.7354 58.816 47.7354 58.848C47.7354 58.912 47.6714 58.976 47.5434 59.04C47.4474 59.104 47.3514 59.12 47.2554 59.088C46.9674 58.928 46.6154 58.544 46.1994 57.936C45.7834 57.296 45.5274 56.768 45.4314 56.352C45.3354 55.968 45.2874 55.616 45.2874 55.296C45.2874 54.464 45.5594 53.824 46.1034 53.376C46.6474 52.896 47.3354 52.56 48.1674 52.368C48.9994 52.144 49.8474 52.016 50.7114 51.984C51.5754 51.92 52.3434 51.888 53.0154 51.888H58.3434C59.5594 51.888 60.6154 51.888 61.5114 51.888C62.4074 51.856 63.1274 51.792 63.6714 51.696C63.7354 51.696 63.7834 51.696 63.8154 51.696C63.8474 51.664 63.8794 51.648 63.9114 51.648C64.1034 51.648 64.1994 51.712 64.1994 51.84C64.1994 51.968 64.1354 52.096 64.0074 52.224C63.9114 52.32 63.8314 52.368 63.7674 52.368C62.7754 52.464 61.8474 52.896 60.9834 53.664C60.1194 54.432 59.3354 55.424 58.6314 56.64C58.4394 56.992 58.0874 57.648 57.5754 58.608C57.0634 59.568 56.5034 60.624 55.8954 61.776C55.2874 62.928 54.7274 64 54.2154 64.992C54.8234 65.024 55.3194 65.056 55.7034 65.088C56.1194 65.088 56.3594 65.088 56.4234 65.088H63.4794C63.7674 65.088 64.2954 65.04 65.0634 64.944C65.8634 64.848 66.4714 64.704 66.8874 64.512C67.7514 62.848 68.6314 61.2 69.5274 59.568C70.4234 57.936 71.2554 56.48 72.0234 55.2C72.8234 53.888 73.4474 52.944 73.8954 52.368C74.4394 52.144 75.0474 51.872 75.7194 51.552C76.4234 51.232 77.1114 50.944 77.7834 50.688C78.4874 50.432 79.1114 50.304 79.6554 50.304C79.8154 50.304 79.9754 50.352 80.1354 50.448C80.3274 50.544 80.4234 50.64 80.4234 50.736C80.4234 50.896 80.1034 50.976 79.4634 50.976C79.1434 50.976 78.8074 51.04 78.4554 51.168C78.1034 51.264 77.6554 51.6 77.1114 52.176C76.6634 52.624 76.0714 53.392 75.3354 54.48C74.6314 55.536 73.8634 56.784 73.0314 58.224C72.1994 59.632 71.3514 61.12 70.4874 62.688C69.6554 64.256 68.8714 65.792 68.1354 67.296C67.3994 68.768 66.7754 70.112 66.2634 71.328C65.7514 72.512 65.4154 73.424 65.2554 74.064C65.2234 74.288 65.1754 74.544 65.1114 74.832C65.0794 75.088 65.0634 75.344 65.0634 75.6C65.0634 76.112 65.1914 76.56 65.4474 76.944C65.7034 77.328 66.1834 77.52 66.8874 77.52C67.3994 77.52 67.9114 77.424 68.4234 77.232C68.9674 77.04 69.4474 76.832 69.8634 76.608C71.0154 75.968 72.0554 75.104 72.9834 74.016C73.9114 72.896 74.6634 71.952 75.2394 71.184C75.3354 71.056 75.3994 70.992 75.4314 70.992C75.5274 70.992 75.5754 71.104 75.5754 71.328C75.5754 71.52 75.5274 71.696 75.4314 71.856C74.8234 72.72 74.0234 73.728 73.0314 74.88C72.0394 76 70.8874 76.928 69.5754 77.664C68.5514 78.208 67.3834 78.48 66.0714 78.48C65.0794 78.48 64.2154 78.128 63.4794 77.424C62.7754 76.688 62.4234 75.808 62.4234 74.784C62.4234 74.272 62.5194 73.76 62.7114 73.248C62.9994 72.512 63.4634 71.456 64.1034 70.08C64.7754 68.704 65.5274 67.184 66.3594 65.52C66.0394 65.808 65.6714 66.064 65.2554 66.288C64.8394 66.512 64.4394 66.608 64.0554 66.576C63.0634 66.48 61.9274 66.432 60.6474 66.432C59.3994 66.4 57.7834 66.384 55.7994 66.384H53.4954C52.5994 68.208 51.6714 70 50.7114 71.76C49.7514 73.488 48.7594 74.912 47.7354 76.032C46.9354 76.896 45.9754 77.6 44.8554 78.144C43.7354 78.688 42.6154 78.96 41.4954 78.96ZM81.1209 78.144C80.8009 78.144 80.5289 78.08 80.3049 77.952C80.0809 77.824 79.9689 77.584 79.9689 77.232C79.9689 76.784 80.0809 76.272 80.3049 75.696C80.5289 75.12 80.7849 74.56 81.0729 74.016C81.3609 73.44 81.6169 72.976 81.8409 72.624C80.7209 73.808 79.5529 74.928 78.3369 75.984C77.7289 76.496 77.0569 76.976 76.3209 77.424C75.5849 77.872 74.8009 78.096 73.9689 78.096C73.6489 78.096 73.4249 78 73.2969 77.808C73.1689 77.584 73.1049 77.328 73.1049 77.04C73.1049 76.88 73.1209 76.768 73.1529 76.704C73.3129 75.456 73.7129 74.16 74.3529 72.816C74.9929 71.472 75.7769 70.208 76.7049 69.024C77.6329 67.84 78.5769 66.88 79.5369 66.144C80.6249 65.312 81.8249 64.896 83.1369 64.896H88.6569C88.8169 64.896 88.8969 64.96 88.8969 65.088C88.8969 65.344 88.7529 65.472 88.4649 65.472C88.1449 65.472 87.8249 65.68 87.5049 66.096C87.1849 66.48 86.9449 66.8 86.7849 67.056C86.5609 67.408 86.2089 68 85.7289 68.832C85.2489 69.664 84.7529 70.576 84.2409 71.568C83.7609 72.528 83.3449 73.424 82.9929 74.256C82.6409 75.088 82.4649 75.696 82.4649 76.08C82.4649 76.528 82.6889 76.752 83.1369 76.752C83.6169 76.752 84.1609 76.528 84.7689 76.08C85.3769 75.632 85.9849 75.088 86.5929 74.448C87.2329 73.776 87.8089 73.12 88.3209 72.48C88.8649 71.808 89.2969 71.28 89.6169 70.896C89.8089 71.088 89.7929 71.36 89.5689 71.712C89.3769 72.032 89.2009 72.288 89.0409 72.48C88.4009 73.312 87.6649 74.176 86.8329 75.072C86.0009 75.936 85.0889 76.672 84.0969 77.28C83.1369 77.856 82.1449 78.144 81.1209 78.144ZM75.9369 76.464C76.3209 76.464 76.8489 76.192 77.5209 75.648C78.2249 75.072 78.9769 74.368 79.7769 73.536C80.5769 72.672 81.3289 71.776 82.0329 70.848C82.7369 69.888 83.3129 69.024 83.7609 68.256C84.2409 67.456 84.4809 66.848 84.4809 66.432C84.4809 66.08 84.3689 65.84 84.1449 65.712C83.9529 65.584 83.6969 65.52 83.3769 65.52C82.8649 65.52 82.3049 65.712 81.6969 66.096C81.1209 66.448 80.6569 66.8 80.3049 67.152C79.9209 67.504 79.4569 68.064 78.9129 68.832C78.4009 69.568 77.8889 70.384 77.3769 71.28C76.8649 72.176 76.4329 73.04 76.0809 73.872C75.7289 74.704 75.5529 75.376 75.5529 75.888C75.5529 76.272 75.6809 76.464 75.9369 76.464ZM92.6383 78.288C92.1903 78.288 91.8063 78.128 91.4863 77.808C91.1663 77.488 91.0063 76.928 91.0063 76.128C91.0063 75.424 91.0543 74.592 91.1503 73.632C91.2783 72.672 91.4543 71.696 91.6783 70.704C91.9023 69.68 92.1583 68.784 92.4463 68.016C91.9023 68.816 91.2943 69.648 90.6223 70.512C89.9503 71.344 89.3903 72.048 88.9423 72.624C88.8463 72.752 88.7663 72.816 88.7023 72.816C88.6383 72.816 88.6063 72.736 88.6063 72.576C88.6063 72.32 88.6863 72.08 88.8463 71.856C89.5183 70.928 90.2703 69.872 91.1023 68.688C91.9663 67.504 92.7023 66.432 93.3103 65.472C93.6623 65.408 94.0783 65.312 94.5583 65.184C95.0703 65.056 95.4383 64.88 95.6623 64.656C95.8223 64.56 95.9183 64.512 95.9503 64.512C96.0463 64.512 96.0943 64.576 96.0943 64.704C96.0943 64.8 96.0463 64.912 95.9503 65.04C95.6623 65.456 95.3423 66.096 94.9903 66.96C94.6703 67.824 94.3343 68.784 93.9823 69.84C93.6623 70.896 93.3903 71.936 93.1663 72.96C92.9743 73.952 92.8783 74.8 92.8783 75.504C92.8783 76.016 92.9583 76.384 93.1183 76.608C93.2783 76.8 93.4863 76.896 93.7423 76.896C94.0943 76.896 94.5103 76.72 94.9903 76.368C95.5023 76.016 95.9343 75.648 96.2863 75.264C96.7343 74.784 97.2303 74.144 97.7743 73.344C98.3503 72.544 98.8783 71.696 99.3583 70.8C99.8703 69.904 100.254 69.088 100.51 68.352C100.702 67.84 100.83 67.408 100.894 67.056C100.958 66.672 100.99 66.368 100.99 66.144C100.99 65.76 100.942 65.488 100.846 65.328C100.75 65.168 100.67 65.072 100.606 65.04C100.414 64.976 100.318 64.896 100.318 64.8C100.318 64.736 100.382 64.688 100.51 64.656C100.638 64.592 100.766 64.592 100.894 64.656C101.31 64.784 101.726 64.976 102.142 65.232C102.558 65.456 102.766 65.904 102.766 66.576C102.766 66.736 102.75 66.928 102.718 67.152C102.686 67.344 102.622 67.568 102.526 67.824C102.334 68.336 101.934 69.056 101.326 69.984C100.75 70.912 100.078 71.888 99.3103 72.912C98.5423 73.936 97.7743 74.864 97.0063 75.696C96.2383 76.528 95.5663 77.12 94.9903 77.472C94.6063 77.696 94.2063 77.888 93.7903 78.048C93.3743 78.208 92.9903 78.288 92.6383 78.288ZM105.548 78.384C104.236 78.384 103.324 78.128 102.812 77.616C102.3 77.104 102.044 76.48 102.044 75.744C102.044 74.816 102.284 73.824 102.764 72.768C103.276 71.712 103.756 70.816 104.204 70.08C104.716 69.312 105.404 68.512 106.268 67.68C107.132 66.848 108.076 66.144 109.1 65.568C110.124 64.992 111.116 64.704 112.076 64.704C112.908 64.704 113.484 64.912 113.804 65.328C114.124 65.712 114.284 66.176 114.284 66.72C114.284 67.712 113.98 68.528 113.372 69.168C112.796 69.808 112.076 70.336 111.212 70.752C110.348 71.136 109.516 71.456 108.716 71.712C108.236 71.84 107.676 71.968 107.036 72.096C106.396 72.224 105.788 72.288 105.212 72.288C104.988 72.864 104.812 73.424 104.684 73.968C104.556 74.512 104.492 75.008 104.492 75.456C104.492 76 104.62 76.448 104.876 76.8C105.164 77.152 105.628 77.328 106.268 77.328C106.524 77.328 106.828 77.296 107.18 77.232C107.532 77.168 107.916 77.072 108.332 76.944C109.292 76.624 110.236 76.112 111.164 75.408C112.092 74.704 112.94 73.952 113.708 73.152C114.508 72.32 115.116 71.632 115.532 71.088C115.628 71.184 115.676 71.296 115.676 71.424C115.676 71.584 115.564 71.84 115.34 72.192C114.7 73.088 113.868 74.016 112.844 74.976C111.82 75.936 110.684 76.752 109.436 77.424C108.188 78.064 106.892 78.384 105.548 78.384ZM105.596 71.328C106.012 71.36 106.476 71.36 106.988 71.328C107.532 71.264 108.06 71.152 108.572 70.992C109.884 70.608 110.828 70 111.404 69.168C112.012 68.304 112.316 67.536 112.316 66.864C112.316 66.48 112.236 66.16 112.076 65.904C111.916 65.648 111.66 65.52 111.308 65.52C110.38 65.52 109.548 65.872 108.812 66.576C108.076 67.248 107.436 68.032 106.892 68.928C106.348 69.824 105.916 70.624 105.596 71.328ZM115.053 78.72C114.925 78.72 114.925 78.576 115.053 78.288C115.213 78 115.357 77.68 115.485 77.328C115.645 76.976 115.805 76.592 115.965 76.176C116.285 75.408 116.637 74.544 117.021 73.584C117.405 72.624 117.773 71.696 118.125 70.8C118.477 69.872 118.781 69.088 119.037 68.448C119.325 67.776 119.517 67.344 119.613 67.152C119.165 67.632 118.621 68.24 117.981 68.976C117.373 69.68 116.797 70.368 116.253 71.04C115.709 71.712 115.293 72.24 115.005 72.624C114.909 72.752 114.829 72.816 114.765 72.816C114.701 72.816 114.669 72.736 114.669 72.576C114.669 72.32 114.749 72.08 114.909 71.856C115.517 71.088 116.189 70.224 116.925 69.264C117.693 68.304 118.381 67.424 118.989 66.624C119.597 65.792 119.981 65.248 120.141 64.992C120.493 64.928 121.005 64.832 121.677 64.704C122.381 64.576 122.861 64.4 123.117 64.176C123.213 64.08 123.309 64.032 123.405 64.032C123.469 64.032 123.501 64.096 123.501 64.224C123.533 64.32 123.501 64.432 123.405 64.56C123.213 64.784 122.877 65.312 122.397 66.144C121.949 66.944 121.453 67.84 120.909 68.832C120.397 69.824 119.917 70.72 119.469 71.52C119.853 71.008 120.269 70.512 120.717 70.032C121.165 69.552 121.597 69.088 122.013 68.64C122.397 68.256 122.925 67.776 123.597 67.2C124.269 66.624 124.973 66.096 125.709 65.616C126.445 65.136 127.085 64.864 127.629 64.8C127.757 64.768 127.869 64.752 127.965 64.752C128.093 64.752 128.189 64.752 128.253 64.752C128.957 64.752 129.309 65.008 129.309 65.52C129.309 65.904 129.101 66.416 128.685 67.056C128.461 67.408 128.109 68 127.629 68.832C127.181 69.632 126.717 70.512 126.237 71.472C125.789 72.4 125.389 73.28 125.037 74.112C124.717 74.912 124.557 75.504 124.557 75.888C124.557 76.336 124.781 76.56 125.229 76.56C125.773 76.56 126.365 76.288 127.005 75.744C127.677 75.2 128.397 74.512 129.165 73.68C129.933 72.816 130.701 71.904 131.469 70.944C131.533 71.008 131.565 71.12 131.565 71.28C131.565 71.504 131.485 71.728 131.325 71.952C131.197 72.144 131.069 72.32 130.941 72.48C130.621 72.896 130.189 73.424 129.645 74.064C129.133 74.672 128.605 75.28 128.061 75.888C127.517 76.464 127.021 76.928 126.573 77.28C126.253 77.504 125.837 77.744 125.325 78C124.813 78.256 124.301 78.384 123.789 78.384C123.213 78.384 122.813 78.24 122.589 77.952C122.365 77.632 122.253 77.248 122.253 76.8C122.253 76.288 122.349 75.744 122.541 75.168C122.733 74.592 122.941 74.048 123.165 73.536C123.421 72.992 123.613 72.592 123.741 72.336C124.317 71.216 124.845 70.16 125.325 69.168C125.805 68.176 126.141 67.472 126.333 67.056C126.429 66.864 126.477 66.704 126.477 66.576C126.477 66.352 126.301 66.336 125.949 66.528C125.597 66.72 125.165 67.008 124.653 67.392C124.173 67.776 123.725 68.16 123.309 68.544C122.893 68.896 122.621 69.136 122.493 69.264C121.309 70.512 120.269 71.904 119.373 73.44C118.509 74.944 117.773 76.496 117.165 78.096C116.749 78.128 116.333 78.24 115.917 78.432C115.501 78.624 115.213 78.72 115.053 78.72Z" fill="black"/>
</svg>
